<svg width="256" height="256" viewBox="0 0 256 256" xmlns="http://www.w3.org/2000/svg"><defs><style/></defs><path d="M128 16C66.248 16 16 66.24 16 128s50.24 112 112 112c61.752 0 112-50.24 112-112S189.76 16 128 16zm45.688 146.496a7.998 7.998 0 0 1-5.664 13.648 7.958 7.958 0 0 1-5.664-2.352l-34.4-34.504-34.512 34.144a8 8 0 0 1-11.312-.064 7.998 7.998 0 0 1 .064-11.312l34.472-34.096-34.344-34.456a7.998 7.998 0 0 1 .016-11.312c3.128-3.128 8.184-3.112 11.312.016l34.392 34.496L162.56 82.56c3.136-3.112 8.208-3.08 11.312.064a7.991 7.991 0 0 1-.064 11.312l-34.472 34.096 34.352 34.464z" fill="#E64340" class="transform-group"/></svg>