<svg width="256" height="256" viewBox="0 0 256 256" xmlns="http://www.w3.org/2000/svg"><defs><style/></defs><path d="M224 126q-.25-.5-.25-.75l-.5-.75q-.5-1-1.5-2l-40-40q-2.5-2.5-5.625-2.5t-5.5 2.5q-2.375 2.5-2.375 5.625t2.25 5.625L192.75 116H92q-5 .25-8.375 3.625t-3.375 8.5q0 5.125 3.375 8.5T92 140h101l-22.25 22.5q-2.5 2.5-2.5 5.625t2.375 5.625q2.375 2.5 5.625 2.5t5.75-2.5l39.75-40q2-2 2.5-4.5v-.75q0-1.25-.25-2.5m-45.25 66.25q-2.75 0-4.75 1.5-9.75 6.75-21.375 10.5t-24.625 4q-34-1-56.625-23.625T48 128q.75-34 23.375-56.625T128 48q13 0 24.625 3.875T174 62.5q2 1.5 4.75 1.5 3.5 0 5.75-2.25t2.25-5.75q-.25-4.25-3.25-6.5h-.25q-11.75-8.5-25.75-13T128 32q-40.75 1-67.875 28.125T32 128q1 41 28.125 68.125T128 224.25q15.5 0 29.375-4.5T183 207q3.5-2.25 3.75-6.75 0-3.5-2.25-5.75t-5.75-2.25" fill="#5CC57F" class="transform-group"/></svg>