<svg width="256" height="256" viewBox="0 0 256 256" xmlns="http://www.w3.org/2000/svg"><defs><style/></defs><path d="M225.85 106.8L122.8 211.65l-.05.05c-11.8 11.8-27.5 18.3-44.2 18.3-16.7 0-32.4-6.5-44.2-18.3S16 184.15 16 167.45s6.5-32.4 18.3-44.2l82.8-82.8a6.005 6.005 0 0 1 8.5 0 6.005 6.005 0 0 1 0 8.5l-82.8 82.8c-9.55 9.55-14.8 22.2-14.8 35.7s5.25 26.2 14.8 35.75S65.05 218 78.55 218s26.15-5.25 35.7-14.8L217.3 98.35l.05-.05c14.2-14.2 14.2-37.3 0-51.5s-37.3-14.2-51.5 0l-.05.05L60.95 149.9c-4.7 4.7-7.25 10.9-7.25 17.55s2.6 12.85 7.25 17.55c9.7 9.7 25.45 9.7 35.1 0L197 84.05a6.005 6.005 0 0 1 8.5 0 6.005 6.005 0 0 1 0 8.5L104.6 193.5c-14.35 14.35-37.75 14.35-52.1 0-6.95-6.95-10.8-16.2-10.8-26.05 0-9.85 3.85-19.1 10.8-26.05l.05-.05 104.85-103c18.85-18.85 49.55-18.85 68.45 0 18.85 18.85 18.85 49.55 0 68.45z" fill="#34475e" class="transform-group"/></svg>