<svg width="256" height="256" viewBox="0 0 256 256" xmlns="http://www.w3.org/2000/svg"><defs><style/></defs><path d="M128 16.496C66.52 16.496 16.496 66.52 16.496 128c0 61.488 50.016 111.504 111.504 111.504 61.488 0 111.504-50.016 111.504-111.504 0-61.48-50.016-111.504-111.504-111.504zm0 207.008c-52.664 0-95.504-42.848-95.504-95.504 0-52.664 42.84-95.504 95.504-95.504 52.656 0 95.504 42.84 95.504 95.504 0 52.656-42.848 95.504-95.504 95.504zM128 88c-22.056 0-40 17.944-40 40s17.944 40 40 40 40-17.944 40-40-17.944-40-40-40z" fill="#5CC57F" class="transform-group"/></svg>