<svg width="256" height="256" viewBox="0 0 256 256" xmlns="http://www.w3.org/2000/svg"><defs><style/></defs><path d="M128 16.496C66.52 16.496 16.496 66.52 16.496 128c0 61.488 50.016 111.504 111.504 111.504 61.488 0 111.504-50.016 111.504-111.504 0-61.48-50.016-111.504-111.504-111.504zm53.808 93.112l-64.056 64.752c-.016.016-.048.024-.064.048-.024.016-.024.048-.048.064-.512.496-1.144.8-1.736 1.136-.296.168-.536.424-.848.544a7.932 7.932 0 0 1-6.016-.016c-.32-.136-.576-.408-.88-.576-.592-.336-1.208-.632-1.72-1.136-.016-.016-.024-.048-.04-.064-.016-.024-.048-.024-.064-.048l-31.504-32.376a8 8 0 0 1 .16-11.312c3.168-3.072 8.224-3.016 11.312.16l25.816 26.528 58.32-58.96c3.104-3.144 8.176-3.176 11.312-.064 3.128 3.112 3.16 8.176.056 11.32z" fill="#5CC57F" class="transform-group"/></svg>