<svg width="256" height="256" viewBox="0 0 256 256" xmlns="http://www.w3.org/2000/svg"><defs><style/></defs><path d="M237.75 226.25L185.25 174Q196 161.25 202 145.5t6-33.5q-1-40.75-28.125-67.875T112 16q-40.75 1-67.875 28.125T16 112q1 40.75 28.125 67.875T112 208q17.75 0 33.5-6t28.5-16.75l52.25 52.5q2.5 2.25 5.75 2.25t5.625-2.375Q240 235.25 240 232t-2.25-5.75M112 192q-34-.75-56.625-23.375T32 112q.75-34 23.375-56.625T112 32q34 .75 56.625 23.375T192 112q-.75 34-23.375 56.625T112 192" fill="#BDBDBD" class="transform-group"/></svg>