<svg width="256" height="256" viewBox="0 0 256 256" xmlns="http://www.w3.org/2000/svg"><defs><style/></defs><path d="M152 96h-48q-3.5.25-5.75 2.5T96 104v48q0 3.5 2.25 5.75T104 160h48q3.25 0 5.5-2.25T160 152v-48q-.25-3.25-2.5-5.5T152 96m-24-64q-41 1-68.125 28.125T31.75 128q1 41 28.125 68.125T128 224.25q40.75-1 67.875-28.125T224 128q-1-40.75-28.125-67.875T128 32m0 176.25q-34-1-56.625-23.625T47.75 128q1-34 23.625-56.625T128 48q34 .75 56.625 23.375T208 128q-.75 34-23.375 56.625T128 208.25" fill="#FFBE00" class="transform-group"/></svg>